Coordinates
version=1
nRows=12
nColumns=46
inDegrees=yes

Units are S.I. units (second, meters, Newtons, ...)
Angles are in degrees.

endheader
time	pelvis_tilt	pelvis_list	pelvis_rotation	pelvis_tx	pelvis_ty	pelvis_tz	bb_angle	bb_tx	bb_ty	bb_tz	hip_flexion_r	hip_adduction_r	hip_rotation_r	knee_angle_r	knee_angle_r_beta	ankle_angle_r	subtalar_angle_r	mtp_angle_r	crank_angle_r	hip_flexion_l	hip_adduction_l	hip_rotation_l	knee_angle_l	knee_angle_l_beta	ankle_angle_l	subtalar_angle_l	mtp_angle_l	crank_angle_l	lumbar_extension	lumbar_bending	lumbar_rotation	arm_flex_r	arm_add_r	arm_rot_r	elbow_flex_r	pro_sup_r	wrist_flex_r	wrist_dev_r	arm_flex_l	arm_add_l	arm_rot_l	elbow_flex_l	pro_sup_l	wrist_flex_l	wrist_dev_l
      0.00500000	     -9.85919616	     -2.21002482	     -0.80467881	      0.06008678	      1.15933966	     -0.23220086	      0.00000000	      0.50000000	      0.00000000	      0.25000000	     75.30134701	     -1.47171586	      1.39504283	     84.42558853	      1.47350449	      7.44937529	     -6.78549948	      0.00000000	      0.00000000	     39.78835756	     -6.51636385	      1.58108517	     65.08686615	      1.13598011	     16.86437068	     -6.36037934	      0.00000000	      0.00000000	    -57.86869011	      2.17575499	      2.30633552	     89.24832125	    -12.08464294	     47.94854854	     37.09843191	     33.67071471	      0.00000000	      0.00000000	     89.46928151	    -12.86779006	     50.26420650	     32.48912492	     32.43888176	      0.00000000	      0.00000000
      0.01000000	     -9.58324013	     -2.19252575	     -0.81471264	      0.06012517	      1.15990407	     -0.23224145	      0.00000000	      0.50000000	      0.00000000	      0.25000000	     75.00907057	     -1.47363453	      1.39789941	     84.46282975	      1.47415447	      7.46940216	     -6.86114896	      0.00000000	      0.00000000	     39.41817652	     -6.50155036	      1.55165343	     64.94834464	      1.13356246	     16.85052938	     -6.35432781	      0.00000000	      0.00000000	    -58.29274096	      2.15612664	      2.30645925	     89.22874446	    -12.13357531	     47.07859927	     37.64736284	     34.21093376	      0.00000000	      0.00000000	     89.45588469	    -13.00857022	     49.23539330	     33.21518664	     33.02549142	      0.00000000	      0.00000000
      0.01500000	     -9.91287851	     -2.23447255	     -0.82702928	      0.06009964	      1.15931189	     -0.23221062	      0.00000000	      0.50000000	      0.00000000	      0.25000000	     75.40002697	     -1.43375798	      1.39587894	     84.48976748	      1.47462463	      7.41474860	     -6.73835028	      0.00000000	      0.00000000	     39.82209767	     -6.54318442	      1.59429543	     64.99609906	      1.13439593	     16.76261205	     -6.37988877	      0.00000000	      0.00000000	    -57.80325808	      2.20215455	      2.32058348	     89.25337662	    -11.98212936	     47.83080136	     36.87870317	     34.21642138	      0.00000000	      0.00000000	     89.46095627	    -12.83945041	     50.02415390	     32.32462825	     32.95421814	      0.00000000	      0.00000000
      0.02000000	     -9.53236389	     -2.36133277	     -0.77252366	      0.06000349	      1.15987449	     -0.23233194	      0.00000000	      0.50000000	      0.00000000	      0.25000000	     74.97476867	     -1.43078476	      1.24429565	     84.55216183	      1.47571361	      7.60610267	     -6.87658975	      0.00000000	      0.00000000	     39.41511925	     -6.60117967	      1.75198300	     64.96673291	      1.13388339	     16.82486322	     -6.30996043	      0.00000000	      0.00000000	    -58.35065705	      2.33367032	      2.44635126	     89.24023306	    -12.12786043	     46.82363637	     37.57337324	     35.04574782	      0.00000000	      0.00000000	     89.45451245	    -13.01819570	     48.78061411	     33.09642667	     33.84069219	      0.00000000	      0.00000000
      0.02500000	     -9.99085363	     -3.15781987	     -1.05549009	      0.05991285	      1.15817319	     -0.23065491	      0.00000000	      0.50000000	      0.00000000	      0.25000000	     75.43926353	     -0.53068911	      0.71889963	     84.49081067	      1.47464283	      7.48396519	     -7.18124912	      0.00000000	      0.00000000	     40.32638215	     -7.37840642	      2.33798965	     65.53150690	      1.14374056	     16.50273207	     -4.26662576	      0.00000000	      0.00000000	    -57.77580821	      2.53516546	      3.17102078	     89.20321690	    -12.05988169	     47.44631508	     37.31989603	     35.07453573	      0.00000000	      0.00000000	     89.41898701	    -13.13158563	     49.38752191	     32.87872407	     33.86466521	      0.00000000	      0.00000000
      0.03000000	    -10.08215337	     -3.30774105	     -1.02965542	      0.05972301	      1.15756802	     -0.23060305	      0.00000000	      0.50000000	      0.00000000	      0.25000000	     75.63774688	     -0.48739073	      0.57033348	     84.64005501	      1.47724764	      7.36461945	     -7.45455205	      0.00000000	      0.00000000	     40.40962816	     -6.86645936	      3.26028905	     65.45686326	      1.14243778	     16.15515875	     -5.95631496	      0.00000000	      0.00000000	    -57.52941269	      2.66717358	      3.31819286	     89.25093047	    -12.12458751	     48.19679055	     36.81010347	     35.31047701	      0.00000000	      0.00000000	     89.46026237	    -13.06089574	     50.43501441	     32.25642257	     34.11505518	      0.00000000	      0.00000000
      0.03500000	     -9.88753644	     -2.36977187	     -0.86715291	      0.05999780	      1.15923255	     -0.23219062	      0.00000000	      0.50000000	      0.00000000	      0.25000000	     75.47136931	     -1.28985955	      1.32955591	     84.64947433	      1.47741204	      7.34043918	     -6.87162208	      0.00000000	      0.00000000	     39.81152249	     -6.68804025	      1.66775954	     64.96592024	      1.13386921	     16.88042664	     -6.16359314	      0.00000000	      0.00000000	    -57.83168960	      2.27196305	      2.54466325	     89.25922162	    -12.29558987	     48.14972456	     36.99061489	     35.33824730	      0.00000000	      0.00000000	     89.47455475	    -12.97574092	     50.57414652	     32.31739620	     34.12978760	      0.00000000	      0.00000000
      0.04000000	     -9.60181960	     -2.33767912	     -0.83716303	      0.06005336	      1.15988807	     -0.23235395	      0.00000000	      0.50000000	      0.00000000	      0.25000000	     75.14912781	     -1.37277310	      1.33321627	     84.66827747	      1.47774021	      7.52379510	     -6.70521468	      0.00000000	      0.00000000	     39.43146993	     -6.62275311	      1.66362729	     64.82053866	      1.13133182	     16.70970493	     -6.34170424	      0.00000000	      0.00000000	    -58.25791141	      2.28554447	      2.47706173	     89.23123353	    -12.24015535	     47.15880602	     37.57308371	     35.63751303	      0.00000000	      0.00000000	     89.45943660	    -13.09658080	     49.47465821	     32.97925245	     34.44425606	      0.00000000	      0.00000000
      0.04500000	     -9.79444648	     -2.31319129	     -0.87184565	      0.06002895	      1.15946059	     -0.23226351	      0.00000000	      0.50000000	      0.00000000	      0.25000000	     75.41736534	     -1.32487126	      1.40338100	     84.73779303	      1.47895349	      7.52013640	     -6.58894258	      0.00000000	      0.00000000	     39.66404094	     -6.61346807	      1.64859970	     64.85835637	      1.13199187	     16.64483571	     -6.33347979	      0.00000000	      0.00000000	    -57.92177228	      2.24733226	      2.43606693	     89.25829350	    -12.09739207	     47.81719442	     36.90252490	     35.31880852	      0.00000000	      0.00000000	     89.47542350	    -12.95678507	     50.16036810	     32.23929599	     34.02233023	      0.00000000	      0.00000000
      0.05000000	     -9.80644730	     -2.31962139	     -0.87896862	      0.06004003	      1.15944632	     -0.23227998	      0.00000000	      0.50000000	      0.00000000	      0.25000000	     75.45686969	     -1.31358512	      1.41137731	     84.77039078	      1.47952243	      7.48334280	     -6.56250682	      0.00000000	      0.00000000	     39.66587209	     -6.61916126	      1.64405430	     64.82832910	      1.13146779	     16.63535300	     -6.37493334	      0.00000000	      0.00000000	    -57.89889120	      2.25389920	      2.45220683	     89.25521295	    -12.04574182	     47.75269476	     36.80640742	     35.08324228	      0.00000000	      0.00000000	     89.47692588	    -12.89532591	     50.17060560	     32.14831233	     33.71230543	      0.00000000	      0.00000000
      0.05500000	     -9.77991788	     -2.29462775	     -0.91412163	      0.06007789	      1.15955636	     -0.23224373	      0.00000000	      0.50000000	      0.00000000	      0.25000000	     75.45603417	     -1.28308703	      1.45561699	     84.80113473	      1.48005901	      7.43222569	     -6.59595576	      0.00000000	      0.00000000	     39.59537632	     -6.61531727	      1.59426798	     64.76864580	      1.13042612	     16.62181947	     -6.35449835	      0.00000000	      0.00000000	    -57.94586145	      2.20800681	      2.42277313	     89.26448277	    -12.06435362	     47.76179594	     36.85862596	     35.62744224	      0.00000000	      0.00000000	     89.47396187	    -13.00621657	     50.09077082	     32.29186355	     34.30185015	      0.00000000	      0.00000000
      0.06000000	     -9.52439044	     -2.35836055	     -0.85066056	      0.06005998	      1.16009908	     -0.23237213	      0.00000000	      0.50000000	      0.00000000	      0.25000000	     75.16366146	     -1.32718286	      1.35014812	     84.80529653	      1.48013165	      7.39091023	     -6.74853868	      0.00000000	      0.00000000	     39.28576542	     -6.61944622	      1.67970928	     64.67965992	      1.12887302	     16.65710760	     -6.38015266	      0.00000000	      0.00000000	    -58.33154763	      2.29748513	      2.48221237	     89.25617149	    -12.10061228	     46.93494801	     37.20904385	     36.12056470	      0.00000000	      0.00000000	     89.45443278	    -13.04394534	     49.14571192	     32.81366111	     34.86629546	      0.00000000	      0.00000000
